<mxfile host="app.diagrams.net" modified="2023-07-05T00:17:38.168Z" agent="Mozilla/5.0 (Macintosh; Intel Mac OS X 10.15; rv:109.0) Gecko/20100101 Firefox/114.0" version="21.5.2" etag="ZY3z0pYbVWkEjmdsK9S_" type="github">
  <diagram name="PÃ¡gina-1" id="Nc3D7D39pCsGL5JLUE9M">
    <mxGraphModel>
      <root>
        <mxCell id="0" />
        <mxCell id="1" parent="0" />
      </root>
    </mxGraphModel>
  </diagram>
</mxfile>
